HIERARCHY
ROOT Hips
{
	OFFSET -163.737 95.9676 49.576
	CHANNELS 6 Xposition Yposition Zposition Zrotation Xrotation Yrotation
	JOINT Spine
	{
		OFFSET 0 11.334 0
		CHANNELS 3 Zrotation Xrotation Yrotation
		JOINT Spine1
		{
			OFFSET 0 11.334 0
			CHANNELS 3 Zrotation Xrotation Yrotation
			JOINT Spine2
			{
				OFFSET 0 11.334 0
				CHANNELS 3 Zrotation Xrotation Yrotation
				JOINT Spine3
				{
					OFFSET 0 11.334 0
					CHANNELS 3 Zrotation Xrotation Yrotation
					JOINT LeftShoulder
					{
						OFFSET 1.5 7.37272 0
						CHANNELS 3 Zrotation Xrotation Yrotation
						JOINT LeftArm
						{
							OFFSET 16.2844 0 0
							CHANNELS 3 Zrotation Xrotation Yrotation
							JOINT LeftForeArm
							{
								OFFSET 30.7521 0 0
								CHANNELS 3 Zrotation Xrotation Yrotation
								JOINT LeftHand
								{
									OFFSET 24.6266 0 0
									CHANNELS 3 Zrotation Xrotation Yrotation
									End Site
									{
										OFFSET 10 0 0
									}
								}
							}
						}
					}
					JOINT RightShoulder
					{
						OFFSET -1.49999 7.37272 0
						CHANNELS 3 Zrotation Xrotation Yrotation
						JOINT RightArm
						{
							OFFSET -16.2844 0 0
							CHANNELS 3 Zrotation Xrotation Yrotation
							JOINT RightForeArm
							{
								OFFSET -30.7521 0 0
								CHANNELS 3 Zrotation Xrotation Yrotation
								JOINT RightHand
								{
									OFFSET -24.6266 0 0
									CHANNELS 3 Zrotation Xrotation Yrotation
									End Site
									{
										OFFSET -10 0 0
									}
								}
							}
						}
					}
					JOINT Neck
					{
						OFFSET 0 11.334 0
						CHANNELS 3 Zrotation Xrotation Yrotation
						JOINT Head
						{
							OFFSET 0 8.37275 0
							CHANNELS 3 Zrotation Xrotation Yrotation
							End Site
							{
								OFFSET 0 15 0
							}
						}
					}
				}
			}
		}
	}
	JOINT LeftUpLeg
	{
		OFFSET 15.2919 0 0
		CHANNELS 3 Zrotation Xrotation Yrotation
		JOINT LeftLeg
		{
			OFFSET 0 -45.786 0
			CHANNELS 3 Zrotation Xrotation Yrotation
			JOINT LeftFoot
			{
				OFFSET 0 -39.104 0
				CHANNELS 3 Zrotation Xrotation Yrotation
				JOINT LeftToeBase
				{
					OFFSET 0 -7.82312 13.5501
					CHANNELS 3 Zrotation Xrotation Yrotation
					End Site
					{
						OFFSET 0 0 5
					}
				}
			}
		}
	}
	JOINT RightUpLeg
	{
		OFFSET -15.2919 0 0
		CHANNELS 3 Zrotation Xrotation Yrotation
		JOINT RightLeg
		{
			OFFSET 0 -45.786 0
			CHANNELS 3 Zrotation Xrotation Yrotation
			JOINT RightFoot
			{
				OFFSET 0 -39.104 0
				CHANNELS 3 Zrotation Xrotation Yrotation
				JOINT RightToeBase
				{
					OFFSET 0 -7.82312 13.5501
					CHANNELS 3 Zrotation Xrotation Yrotation
					End Site
					{
						OFFSET 0 0 5
					}
				}
			}
		}
	}
}
MOTION
Frames: 15
Frame Time: 0.005
-163.737 95.9676 49.576 0.277861 0.426684 -2.17669 179.393 179.687 179.473 179.393 179.687 179.473 179.393 179.687 179.473 179.393 179.687 179.473 158.343 175.142 179.436 142.124 144.453 168.678 2.07517 5.18512 -8.34937 177.844 -178.674 -168.995 23.0854 5.75355 1.21018 38.6374 16.7289 7.1317 2.10914 20.7541 1.26789 11.6684 -3.48395 -5.68794 3.78748 -11.6343 -2.85429 179.6 176.87 179.449 177.382 -177.029 -179.597 1.05212 1.83274 -0.019715 2.55657 -0.132583 -2.13861 1.15123 -0.626197 1.15316 0.991609 -3.44047 0.66297 179.193 178.185 -179.979 0.875979 0.101354 -0.582711 1.10882 1.92948 1.14502
-163.735 95.9671 49.5729 0.273031 0.419242 -2.16363 179.391 179.683 179.475 179.391 179.683 179.475 179.391 179.683 179.475 179.391 179.683 179.475 158.357 175.138 179.436 142.145 144.377 168.65 2.0727 5.05849 -8.36712 177.902 -178.725 -168.984 23.1181 5.69026 1.21005 38.6188 16.7513 7.08484 2.03474 20.8565 1.32616 11.6887 -3.48243 -5.72342 3.80819 -11.6402 -2.89758 179.589 176.886 179.45 177.384 -177.028 -179.611 1.05213 1.84771 -0.0197151 2.54363 -0.141183 -2.1506 1.15213 -0.671186 1.15317 1.0044 -3.44256 0.676839 179.193 178.161 -179.979 0.803703 0.0985573 -0.59731 1.10825 1.95809 1.14504
-163.735 95.9674 49.5764 0.255 0.42399 -2.16313 179.405 179.693 179.472 179.405 179.693 179.472 179.405 179.693 179.472 179.405 179.693 179.472 158.315 175.125 179.435 142.126 144.443 168.683 2.07437 5.17691 -8.38371 178.369 -178.749 -169.077 23.1049 5.6647 1.20999 38.6521 16.4512 6.95304 2.64116 19.9995 1.075 10.8553 -2.97339 -5.63054 3.75052 -11.5976 -2.89458 179.602 176.896 179.452 177.414 -177.027 -179.653 1.05213 1.84119 -0.0197151 2.43976 -0.175098 -2.14164 1.15248 -0.688376 1.15317 1.01162 -3.4392 0.690113 179.193 178.163 -179.979 0.899741 0.0461804 -0.610134 1.10831 1.9552 1.14504
-163.727 95.9676 49.5745 0.270036 0.429027 -2.18041 179.396 179.693 179.477 179.396 179.693 179.477 179.396 179.693 179.477 179.396 179.693 179.477 158.334 175.126 179.435 142.142 144.416 168.661 2.07627 5.13166 -8.38709 178.084 -178.737 -169.024 23.1071 5.70056 1.21007 38.6337 16.6225 7.03782 2.34595 20.3868 1.18503 11.3031 -3.23717 -5.67428 3.78035 -11.6336 -2.88124 179.596 176.887 179.452 177.388 -177.024 -179.624 1.05213 1.83825 -0.019715 2.50515 -0.146495 -2.13179 1.1521 -0.669399 1.15317 0.996872 -3.45143 0.69675 179.193 178.164 -179.979 0.864972 0.0815266 -0.60124 1.10837 1.9521 1.14504
-163.727 95.9676 49.5745 0.270036 0.429027 -2.18041 179.396 179.693 179.477 179.396 179.693 179.477 179.396 179.693 179.477 179.396 179.693 179.477 158.334 175.126 179.435 142.142 144.416 168.661 2.07627 5.13166 -8.38709 178.084 -178.737 -169.024 23.1071 5.70056 1.21007 38.6337 16.6225 7.03782 2.34595 20.3868 1.18503 11.3043 -3.23717 -5.67428 3.78035 -11.6336 -2.88124 179.596 176.887 179.452 177.388 -177.024 -179.624 1.05213 1.83825 -0.019715 2.50515 -0.146495 -2.13179 1.1521 -0.669399 1.15317 0.996872 -3.45143 0.69675 179.193 178.164 -179.979 0.864972 0.0815266 -0.60124 1.10837 1.9521 1.14504
-163.719 95.9678 49.574 0.270417 0.434838 -2.19258 179.396 179.698 179.48 179.396 179.698 179.48 179.396 179.698 179.48 179.396 179.698 179.48 158.328 175.117 179.435 142.149 144.414 168.654 2.07948 5.13326 -8.40846 178.144 -178.752 -169.028 23.1119 5.69725 1.21006 38.6347 16.562 7.01132 2.45587 20.23 1.13941 11.167 -3.14844 -5.66358 3.7764 -11.6395 -2.87842 179.596 176.891 179.452 177.385 -177.02 -179.63 1.05213 1.83563 -0.019715 2.49199 -0.145392 -2.12021 1.15224 -0.676398 1.15317 0.991775 -3.46166 0.716949 179.193 178.159 -179.979 0.874873 0.0782568 -0.606355 1.1083 1.95581 1.14504
-163.719 95.9678 49.574 0.270417 0.434838 -2.19258 179.396 179.698 179.48 179.396 179.698 179.48 179.396 179.698 179.48 179.396 179.698 179.48 158.328 175.117 179.435 142.149 144.414 168.654 2.07948 5.13326 -8.40846 178.145 -178.752 -169.028 23.1119 5.69725 1.21006 38.6347 16.562 7.01132 2.45587 20.23 1.13941 11.1681 -3.14844 -5.66358 3.7764 -11.6395 -2.87842 179.596 176.891 179.452 177.385 -177.02 -179.63 1.05213 1.83563 -0.019715 2.49199 -0.145392 -2.12021 1.15224 -0.676398 1.15317 0.991775 -3.46166 0.716949 179.193 178.159 -179.979 0.874873 0.0782568 -0.606355 1.1083 1.95581 1.14504
-163.715 95.968 49.5738 0.273097 0.437651 -2.20332 179.393 179.702 179.483 179.393 179.702 179.483 179.393 179.702 179.483 179.393 179.702 179.483 158.332 175.118 179.435 142.151 144.414 168.649 2.07793 5.13291 -8.41368 178.143 -178.754 -169.029 23.1174 5.69869 1.21007 38.6363 16.5624 7.01094 2.45563 20.2301 1.13731 11.169 -3.14895 -5.66483 3.77781 -11.643 -2.87765 179.596 176.893 179.452 177.379 -177.018 -179.624 1.05213 1.8371 -0.019715 2.49623 -0.140074 -2.11413 1.15223 -0.676297 1.15317 0.987325 -3.46703 0.723703 179.193 178.159 -179.979 0.871553 0.0855956 -0.601787 1.1083 1.95576 1.14504
-163.71 95.9681 49.5734 0.275195 0.440993 -2.21181 179.392 179.704 179.484 179.392 179.704 179.484 179.392 179.704 179.484 179.392 179.704 179.484 158.334 175.117 179.435 142.152 144.413 168.647 2.07603 5.1329 -8.41913 178.142 -178.755 -169.031 23.1195 5.69943 1.21007 38.6355 16.5615 7.01013 2.45493 20.2287 1.13517 11.1703 -3.14872 -5.66599 3.78007 -11.6472 -2.87631 179.597 176.895 179.453 177.375 -177.015 -179.619 1.05213 1.83659 -0.019715 2.49964 -0.136839 -2.10983 1.15223 -0.676202 1.15317 0.982971 -3.47227 0.729693 179.193 178.16 -179.979 0.871199 0.0905654 -0.598256 1.1083 1.95573 1.14504
-163.705 95.9682 49.573 0.277297 0.444359 -2.21977 179.391 179.706 179.486 179.391 179.706 179.486 179.391 179.706 179.486 179.391 179.706 179.486 158.335 175.116 179.435 142.153 144.412 168.644 2.07442 5.13285 -8.42497 178.14 -178.757 -169.032 23.1215 5.70031 1.21007 38.6349 16.5602 7.00917 2.45455 20.2269 1.13325 11.1718 -3.14818 -5.66701 3.78229 -11.6517 -2.87473 179.598 176.897 179.454 177.37 -177.013 -179.615 1.05213 1.83565 -0.019715 2.50335 -0.133545 -2.10557 1.15223 -0.676106 1.15317 0.978601 -3.47758 0.735448 179.193 178.16 -179.979 0.871521 0.0950159 -0.595319 1.1083 1.95572 1.14504
-163.697 95.9684 49.5721 0.280966 0.450704 -2.2311 179.39 179.709 179.489 179.39 179.709 179.489 179.39 179.709 179.489 179.39 179.709 179.489 158.333 175.111 179.435 142.157 144.409 168.638 2.07351 5.13224 -8.43934 178.135 -178.764 -169.034 23.1222 5.70272 1.21007 38.6325 16.5541 7.00651 2.45569 20.218 1.13099 11.1755 -3.14475 -5.66841 3.78645 -11.6634 -2.86959 179.598 176.9 179.457 177.361 -177.009 -179.611 1.05212 1.83069 -0.019715 2.51079 -0.127515 -2.09862 1.15223 -0.675924 1.15317 0.970633 -3.48801 0.746281 179.193 178.158 -179.979 0.875989 0.0991212 -0.593818 1.1083 1.95588 1.14504
-163.697 95.9684 49.5721 0.280966 0.450704 -2.2311 179.39 179.709 179.489 179.39 179.709 179.489 179.39 179.709 179.489 179.39 179.709 179.489 158.333 175.111 179.435 142.157 144.409 168.638 2.07351 5.13224 -8.43934 178.135 -178.764 -169.034 23.1222 5.70272 1.21007 38.6325 16.5541 7.00651 2.45569 20.218 1.13099 11.1767 -3.14475 -5.66841 3.78645 -11.6634 -2.86959 179.598 176.9 179.457 177.361 -177.009 -179.611 1.05212 1.83069 -0.019715 2.51079 -0.127515 -2.09862 1.15223 -0.675924 1.15317 0.970633 -3.48801 0.746281 179.193 178.158 -179.979 0.875989 0.0991212 -0.593818 1.1083 1.95588 1.14504
-163.688 95.9685 49.5714 0.284606 0.457451 -2.24626 179.388 179.714 179.493 179.388 179.714 179.493 179.388 179.714 179.493 179.388 179.714 179.493 158.332 175.106 179.435 142.165 144.406 168.63 2.07395 5.1316 -8.45487 178.129 -178.771 -169.035 23.1255 5.70544 1.21008 38.6318 16.5461 7.00346 2.45918 20.2064 1.12776 11.1809 -3.14054 -5.67053 3.79005 -11.6752 -2.86408 179.597 176.903 179.46 177.352 -177.006 -179.604 1.05212 1.82645 -0.0197149 2.5178 -0.120993 -2.08958 1.15222 -0.675764 1.15317 0.962241 -3.49961 0.760193 179.193 178.155 -179.979 0.879749 0.104387 -0.591772 1.10829 1.95616 1.14504
-163.688 95.9685 49.5714 0.284606 0.457451 -2.24626 179.388 179.714 179.493 179.388 179.714 179.493 179.388 179.714 179.493 179.388 179.714 179.493 158.332 175.106 179.435 142.165 144.406 168.63 2.07395 5.1316 -8.45487 178.13 -178.771 -169.035 23.1255 5.70544 1.21008 38.6318 16.5461 7.00346 2.45918 20.2064 1.12776 11.182 -3.14055 -5.67053 3.79005 -11.6752 -2.86408 179.597 176.903 179.46 177.352 -177.006 -179.604 1.05212 1.82645 -0.0197149 2.5178 -0.120993 -2.08958 1.15222 -0.675764 1.15317 0.962241 -3.49961 0.760193 179.193 178.155 -179.979 0.879749 0.104387 -0.591772 1.10829 1.95616 1.14504
-163.679 95.9686 49.5708 0.287914 0.464014 -2.26123 179.387 179.718 179.496 179.387 179.718 179.496 179.387 179.718 179.496 179.387 179.718 179.496 158.331 175.101 179.435 142.172 144.402 168.622 2.07536 5.13135 -8.47047 178.124 -178.778 -169.037 23.1287 5.70841 1.21009 38.6311 16.5372 7.0002 2.46449 20.1929 1.12404 11.1862 -3.13668 -5.67258 3.79355 -11.6867 -2.85817 179.596 176.906 179.463 177.344 -177.002 -179.598 1.05212 1.82186 -0.0197149 2.52508 -0.115379 -2.0807 1.15222 -0.675656 1.15317 0.953978 -3.51078 0.774782 179.193 178.153 -179.979 0.884211 0.108912 -0.590905 1.10828 1.95658 1.14504
